<?xml version="1.0" encoding="UTF-8" standalone="no"?>
<!DOCTYPE svg PUBLIC "-//W3C//DTD SVG 1.1//EN" "http://www.w3.org/Graphics/SVG/1.1/DTD/svg11.dtd">
<svg version="1.1" xmlns="http://www.w3.org/2000/svg" xmlns:xl="http://www.w3.org/1999/xlink" xmlns:dc="http://purl.org/dc/elements/1.1/" viewBox="-1 -1 922 482" width="922" height="482">
  <defs/>
  <g id="04-ivfflat-step3" fill="none" stroke-opacity="1" stroke="none" stroke-dasharray="none" fill-opacity="1">
    <title>04-ivfflat-step3</title>
    <rect fill="white" x="-1" y="-1" width="922" height="482"/>
    <g id="04-ivfflat-step3_Layer_1">
      <title>Layer 1</title>
      <g id="Group_67">
        <title>svg_g_edges</title>
        <g id="Graphic_68">
          <title>svg_path_edges</title>
          <path d="M 605.7143 101.71086 L 632.404 0 M 461.42335 0 L 528.6641 122.38582 M 426.6088 0 L 436.58105 160.65343 M 265.33117 0 L 233.78642 174.59055 M 305.2827 0 L 340.0012 164.88126 M 605.7143 101.71086 L 528.6641 122.38582 M 605.7143 101.71086 L 638.03255 168.54807 M 528.6641 122.38582 L 499.7303 192.75582 M 754.3057 102.2646 L 638.03255 168.54807 M 754.3057 102.2646 L 813.533 0 M 754.3057 102.2646 L 747.7059 235.61745 M 436.58105 160.65343 L 340.0012 164.88126 M 436.58105 160.65343 L 475.2812 196.27577 M 233.78642 174.59055 L 105.97452 202.79247 M 233.78642 174.59055 L 290.07067 208.97598 M 340.0012 164.88126 L 324.06205 195.80475 M 638.03255 168.54807 L 628.7979 225.94703 M 324.06205 195.80475 L 290.07067 208.97598 M 324.06205 195.80475 L 410.6824 295.9535 M 499.7303 192.75582 L 601.3019 251.65807 M 499.7303 192.75582 L 475.2812 196.27577 M 290.07067 208.97598 L 248.3588 308.96807 M 475.2812 196.27577 L 410.6824 295.9535 M 747.7059 235.61745 L 628.7979 225.94703 M 747.7059 235.61745 L 768.0921 253.53515 M 105.97452 202.79247 L 248.3588 308.96807 M 768.0921 253.53515 L 920 234.33078 M 628.7979 225.94703 L 601.3019 251.65807 M 105.97452 202.79247 L 0 177.59488 M 768.0921 253.53515 L 745.343 339.91543 M 601.3019 251.65807 L 595.0208 334.46477 M 410.6824 295.9535 L 410.0552 310.7129 M 248.3588 308.96807 L 253.85373 328.75105 M 253.85373 328.75105 L 0 427.63416 M 449.66156 342.51585 L 595.0208 334.46477 M 410.0552 310.7129 L 296.62704 367.68948 M 410.0552 310.7129 L 449.66156 342.51585 M 745.343 339.91543 L 621.45804 377.7749 M 745.343 339.91543 L 907.5284 480 M 253.85373 328.75105 L 296.62704 367.68948 M 449.66156 342.51585 L 451.80865 480 M 595.0208 334.46477 L 621.45804 377.7749 M 296.62704 367.68948 L 294.80447 480 M 621.45804 377.7749 L 619.76666 480 M 619.76666 480 L 907.5284 480 M 294.80447 480 L 451.80865 480 M 451.80865 480 L 619.76666 480 M 0 427.63416 L 0 480 M 0 480 L 294.80447 480 M 907.5284 480 L 920 480 M 920 480 L 920 234.33078 M 0 177.59488 L 0 427.63416 M 920 234.33078 L 920 0 M 920 0 L 813.533 0 M 305.2827 0 L 265.33117 0 M 265.33117 0 L 0 0 M 0 0 L 0 177.59488 M 426.6088 0 L 305.2827 0 M 461.42335 0 L 426.6088 0 M 813.533 0 L 632.404 0 M 632.404 0 L 461.42335 0" fill="black"/>
          <path d="M 605.7143 101.71086 L 632.404 0 M 461.42335 0 L 528.6641 122.38582 M 426.6088 0 L 436.58105 160.65343 M 265.33117 0 L 233.78642 174.59055 M 305.2827 0 L 340.0012 164.88126 M 605.7143 101.71086 L 528.6641 122.38582 M 605.7143 101.71086 L 638.03255 168.54807 M 528.6641 122.38582 L 499.7303 192.75582 M 754.3057 102.2646 L 638.03255 168.54807 M 754.3057 102.2646 L 813.533 0 M 754.3057 102.2646 L 747.7059 235.61745 M 436.58105 160.65343 L 340.0012 164.88126 M 436.58105 160.65343 L 475.2812 196.27577 M 233.78642 174.59055 L 105.97452 202.79247 M 233.78642 174.59055 L 290.07067 208.97598 M 340.0012 164.88126 L 324.06205 195.80475 M 638.03255 168.54807 L 628.7979 225.94703 M 324.06205 195.80475 L 290.07067 208.97598 M 324.06205 195.80475 L 410.6824 295.9535 M 499.7303 192.75582 L 601.3019 251.65807 M 499.7303 192.75582 L 475.2812 196.27577 M 290.07067 208.97598 L 248.3588 308.96807 M 475.2812 196.27577 L 410.6824 295.9535 M 747.7059 235.61745 L 628.7979 225.94703 M 747.7059 235.61745 L 768.0921 253.53515 M 105.97452 202.79247 L 248.3588 308.96807 M 768.0921 253.53515 L 920 234.33078 M 628.7979 225.94703 L 601.3019 251.65807 M 105.97452 202.79247 L 0 177.59488 M 768.0921 253.53515 L 745.343 339.91543 M 601.3019 251.65807 L 595.0208 334.46477 M 410.6824 295.9535 L 410.0552 310.7129 M 248.3588 308.96807 L 253.85373 328.75105 M 253.85373 328.75105 L 0 427.63416 M 449.66156 342.51585 L 595.0208 334.46477 M 410.0552 310.7129 L 296.62704 367.68948 M 410.0552 310.7129 L 449.66156 342.51585 M 745.343 339.91543 L 621.45804 377.7749 M 745.343 339.91543 L 907.5284 480 M 253.85373 328.75105 L 296.62704 367.68948 M 449.66156 342.51585 L 451.80865 480 M 595.0208 334.46477 L 621.45804 377.7749 M 296.62704 367.68948 L 294.80447 480 M 621.45804 377.7749 L 619.76666 480 M 619.76666 480 L 907.5284 480 M 294.80447 480 L 451.80865 480 M 451.80865 480 L 619.76666 480 M 0 427.63416 L 0 480 M 0 480 L 294.80447 480 M 907.5284 480 L 920 480 M 920 480 L 920 234.33078 M 0 177.59488 L 0 427.63416 M 920 234.33078 L 920 0 M 920 0 L 813.533 0 M 305.2827 0 L 265.33117 0 M 265.33117 0 L 0 0 M 0 0 L 0 177.59488 M 426.6088 0 L 305.2827 0 M 461.42335 0 L 426.6088 0 M 813.533 0 L 632.404 0 M 632.404 0 L 461.42335 0" stroke="black" stroke-linecap="butt" stroke-linejoin="round" stroke-width="2"/>
        </g>
      </g>
      <g id="Group_69">
        <title>svg_g_seeds</title>
        <g id="Graphic_89">
          <title>c_0</title>
          <circle cx="500.34507" cy="273.99126" r="3.00000629370808" fill="#1f7bfd"/>
          <circle cx="500.34507" cy="273.99126" r="3.00000629370808" stroke="black" stroke-linecap="butt" stroke-linejoin="round" stroke-width="2"/>
        </g>
        <g id="Graphic_88">
          <title>c_1</title>
          <circle cx="162.3123" cy="311.15352" r="3.0000062937081" fill="#1f7bfd"/>
          <circle cx="162.3123" cy="311.15352" r="3.0000062937081" stroke="black" stroke-linecap="butt" stroke-linejoin="round" stroke-width="2"/>
        </g>
        <g id="Graphic_87">
          <title>c_2</title>
          <circle cx="697.73494" cy="288.96387" r="3.00000629370814" fill="#1f7bfd"/>
          <circle cx="697.73494" cy="288.96387" r="3.00000629370814" stroke="black" stroke-linecap="butt" stroke-linejoin="round" stroke-width="2"/>
        </g>
        <g id="Graphic_86">
          <title>c_3</title>
          <circle cx="323.20628" cy="266.4636" r="3.00000629370803" fill="#1f7bfd"/>
          <circle cx="323.20628" cy="266.4636" r="3.00000629370803" stroke="black" stroke-linecap="butt" stroke-linejoin="round" stroke-width="2"/>
        </g>
        <g id="Graphic_85">
          <title>c_4</title>
          <circle cx="394.10664" cy="205.14065" r="3.00000629370809" fill="#1f7bfd"/>
          <circle cx="394.10664" cy="205.14065" r="3.00000629370809" stroke="black" stroke-linecap="butt" stroke-linejoin="round" stroke-width="2"/>
        </g>
        <g id="Graphic_84">
          <title>c_5</title>
          <circle cx="570.5428" cy="152.94166" r="3.00000629370814" fill="#1f7bfd"/>
          <circle cx="570.5428" cy="152.94166" r="3.00000629370814" stroke="black" stroke-linecap="butt" stroke-linejoin="round" stroke-width="2"/>
        </g>
        <g id="Graphic_83">
          <title>c_6</title>
          <circle cx="205.05582" cy="131.38547" r="3.00000629370812" fill="#1f7bfd"/>
          <circle cx="205.05582" cy="131.38547" r="3.00000629370812" stroke="black" stroke-linecap="butt" stroke-linejoin="round" stroke-width="2"/>
        </g>
        <g id="Graphic_82">
          <title>c_7</title>
          <circle cx="794.1969" cy="179.21244" r="3.00000629370818" fill="#1f7bfd"/>
          <circle cx="794.1969" cy="179.21244" r="3.00000629370818" stroke="black" stroke-linecap="butt" stroke-linejoin="round" stroke-width="2"/>
        </g>
        <g id="Graphic_81">
          <title>c_8</title>
          <circle cx="225.90492" cy="225.87416" r="3.0000062937081" fill="#1f7bfd"/>
          <circle cx="225.90492" cy="225.87416" r="3.0000062937081" stroke="black" stroke-linecap="butt" stroke-linejoin="round" stroke-width="2"/>
        </g>
        <g id="Graphic_80">
          <title>c_9</title>
          <circle cx="477.4041" cy="114.64619" r="3.00000629370806" fill="#1f7bfd"/>
          <circle cx="477.4041" cy="114.64619" r="3.00000629370806" stroke="black" stroke-linecap="butt" stroke-linejoin="round" stroke-width="2"/>
        </g>
        <g id="Graphic_79">
          <title>c_10</title>
          <circle cx="393.70064" cy="406.8028" r="3.00000629370804" fill="#1f7bfd"/>
          <circle cx="393.70064" cy="406.8028" r="3.00000629370804" stroke="black" stroke-linecap="butt" stroke-linejoin="round" stroke-width="2"/>
        </g>
        <g id="Graphic_78">
          <title>c_11</title>
          <circle cx="390.38167" cy="120.04794" r="3.00000629370806" fill="#1f7bfd"/>
          <circle cx="390.38167" cy="120.04794" r="3.00000629370806" stroke="black" stroke-linecap="butt" stroke-linejoin="round" stroke-width="2"/>
        </g>
        <g id="Graphic_77">
          <title>c_12</title>
          <circle cx="549.6204" cy="74.96939" r="3.00000629370815" fill="#1f7bfd"/>
          <circle cx="549.6204" cy="74.96939" r="3.00000629370815" stroke="black" stroke-linecap="butt" stroke-linejoin="round" stroke-width="2"/>
        </g>
        <g id="Graphic_76">
          <title>c_13</title>
          <circle cx="667.7111" cy="105.95725" r="3.00000629370814" fill="#1f7bfd"/>
          <circle cx="667.7111" cy="105.95725" r="3.00000629370814" stroke="black" stroke-linecap="butt" stroke-linejoin="round" stroke-width="2"/>
        </g>
        <g id="Graphic_75">
          <title>c_14</title>
          <circle cx="507.60264" cy="405.024" r="3.00000629370805" fill="#1f7bfd"/>
          <circle cx="507.60264" cy="405.024" r="3.00000629370805" stroke="black" stroke-linecap="butt" stroke-linejoin="round" stroke-width="2"/>
        </g>
        <g id="Graphic_74">
          <title>c_15</title>
          <circle cx="707.0116" cy="174.8975" r="3.00000629370814" fill="#1f7bfd"/>
          <circle cx="707.0116" cy="174.8975" r="3.00000629370814" stroke="black" stroke-linecap="butt" stroke-linejoin="round" stroke-width="2"/>
        </g>
        <g id="Graphic_73">
          <title>c_16</title>
          <circle cx="198.33543" cy="403.63244" r="3.00000629370808" fill="#1f7bfd"/>
          <circle cx="198.33543" cy="403.63244" r="3.00000629370808" stroke="black" stroke-linecap="butt" stroke-linejoin="round" stroke-width="2"/>
        </g>
        <g id="Graphic_72">
          <title>c_17</title>
          <circle cx="275.8194" cy="144.17093" r="3.00000629370808" fill="#1f7bfd"/>
          <circle cx="275.8194" cy="144.17093" r="3.00000629370808" stroke="black" stroke-linecap="butt" stroke-linejoin="round" stroke-width="2"/>
        </g>
        <g id="Graphic_71">
          <title>c_18</title>
          <circle cx="734.3497" cy="408.7757" r="3.00000629370822" fill="#1f7bfd"/>
          <circle cx="734.3497" cy="408.7757" r="3.00000629370822" stroke="black" stroke-linecap="butt" stroke-linejoin="round" stroke-width="2"/>
        </g>
        <g id="Graphic_70">
          <title>c_19</title>
          <circle cx="811.8719" cy="319.02297" r="3.00000629370815" fill="#1f7bfd"/>
          <circle cx="811.8719" cy="319.02297" r="3.00000629370815" stroke="black" stroke-linecap="butt" stroke-linejoin="round" stroke-width="2"/>
        </g>
      </g>
      <g id="Group_194">
        <title>svg_g_seeds</title>
        <g id="Graphic_274">
          <title>c_0</title>
          <circle cx="500.8451" cy="273.99126" r="3.00000629370808" fill="#1f7bfd"/>
          <circle cx="500.8451" cy="273.99126" r="3.00000629370808" stroke="black" stroke-linecap="butt" stroke-linejoin="round" stroke-width="2"/>
        </g>
        <g id="Graphic_273">
          <title>c_1</title>
          <circle cx="162.81231" cy="311.15352" r="3.0000062937081" fill="#1f7bfd"/>
          <circle cx="162.81231" cy="311.15352" r="3.0000062937081" stroke="black" stroke-linecap="butt" stroke-linejoin="round" stroke-width="2"/>
        </g>
        <g id="Graphic_272">
          <title>c_2</title>
          <circle cx="698.23495" cy="288.96387" r="3.00000629370814" fill="#1f7bfd"/>
          <circle cx="698.23495" cy="288.96387" r="3.00000629370814" stroke="black" stroke-linecap="butt" stroke-linejoin="round" stroke-width="2"/>
        </g>
        <g id="Graphic_271">
          <title>c_3</title>
          <circle cx="323.7063" cy="266.4636" r="3.00000629370803" fill="#1f7bfd"/>
          <circle cx="323.7063" cy="266.4636" r="3.00000629370803" stroke="black" stroke-linecap="butt" stroke-linejoin="round" stroke-width="2"/>
        </g>
        <g id="Graphic_270">
          <title>c_4</title>
          <circle cx="394.60664" cy="205.14065" r="3.00000629370809" fill="#1f7bfd"/>
          <circle cx="394.60664" cy="205.14065" r="3.00000629370809" stroke="black" stroke-linecap="butt" stroke-linejoin="round" stroke-width="2"/>
        </g>
        <g id="Graphic_269">
          <title>c_5</title>
          <circle cx="571.0428" cy="152.94166" r="3.00000629370814" fill="#1f7bfd"/>
          <circle cx="571.0428" cy="152.94166" r="3.00000629370814" stroke="black" stroke-linecap="butt" stroke-linejoin="round" stroke-width="2"/>
        </g>
        <g id="Graphic_268">
          <title>c_6</title>
          <circle cx="205.55582" cy="131.38547" r="3.00000629370812" fill="#1f7bfd"/>
          <circle cx="205.55582" cy="131.38547" r="3.00000629370812" stroke="black" stroke-linecap="butt" stroke-linejoin="round" stroke-width="2"/>
        </g>
        <g id="Graphic_267">
          <title>c_7</title>
          <circle cx="794.6969" cy="179.21244" r="3.00000629370818" fill="#1f7bfd"/>
          <circle cx="794.6969" cy="179.21244" r="3.00000629370818" stroke="black" stroke-linecap="butt" stroke-linejoin="round" stroke-width="2"/>
        </g>
        <g id="Graphic_266">
          <title>c_8</title>
          <circle cx="226.40492" cy="225.87416" r="3.00000629370809" fill="#1f7bfd"/>
          <circle cx="226.40492" cy="225.87416" r="3.00000629370809" stroke="black" stroke-linecap="butt" stroke-linejoin="round" stroke-width="2"/>
        </g>
        <g id="Graphic_265">
          <title>c_9</title>
          <circle cx="477.9041" cy="114.64619" r="3.00000629370804" fill="#1f7bfd"/>
          <circle cx="477.9041" cy="114.64619" r="3.00000629370804" stroke="black" stroke-linecap="butt" stroke-linejoin="round" stroke-width="2"/>
        </g>
        <g id="Graphic_264">
          <title>c_10</title>
          <circle cx="394.20064" cy="406.8028" r="3.00000629370804" fill="#1f7bfd"/>
          <circle cx="394.20064" cy="406.8028" r="3.00000629370804" stroke="black" stroke-linecap="butt" stroke-linejoin="round" stroke-width="2"/>
        </g>
        <g id="Graphic_263">
          <title>c_11</title>
          <circle cx="390.88167" cy="120.04794" r="3.00000629370805" fill="#1f7bfd"/>
          <circle cx="390.88167" cy="120.04794" r="3.00000629370805" stroke="black" stroke-linecap="butt" stroke-linejoin="round" stroke-width="2"/>
        </g>
        <g id="Graphic_262">
          <title>c_12</title>
          <circle cx="550.1204" cy="74.96939" r="3.00000629370815" fill="#1f7bfd"/>
          <circle cx="550.1204" cy="74.96939" r="3.00000629370815" stroke="black" stroke-linecap="butt" stroke-linejoin="round" stroke-width="2"/>
        </g>
        <g id="Graphic_261">
          <title>c_13</title>
          <circle cx="668.2111" cy="105.95725" r="3.00000629370813" fill="#1f7bfd"/>
          <circle cx="668.2111" cy="105.95725" r="3.00000629370813" stroke="black" stroke-linecap="butt" stroke-linejoin="round" stroke-width="2"/>
        </g>
        <g id="Graphic_260">
          <title>c_14</title>
          <circle cx="508.10264" cy="405.024" r="3.00000629370805" fill="#1f7bfd"/>
          <circle cx="508.10264" cy="405.024" r="3.00000629370805" stroke="black" stroke-linecap="butt" stroke-linejoin="round" stroke-width="2"/>
        </g>
        <g id="Graphic_259">
          <title>c_15</title>
          <circle cx="707.5116" cy="174.8975" r="3.00000629370814" fill="#1f7bfd"/>
          <circle cx="707.5116" cy="174.8975" r="3.00000629370814" stroke="black" stroke-linecap="butt" stroke-linejoin="round" stroke-width="2"/>
        </g>
        <g id="Graphic_258">
          <title>c_16</title>
          <circle cx="198.83543" cy="403.63244" r="3.00000629370809" fill="#1f7bfd"/>
          <circle cx="198.83543" cy="403.63244" r="3.00000629370809" stroke="black" stroke-linecap="butt" stroke-linejoin="round" stroke-width="2"/>
        </g>
        <g id="Graphic_257">
          <title>c_17</title>
          <circle cx="276.31942" cy="144.17093" r="3.00000629370808" fill="#1f7bfd"/>
          <circle cx="276.31942" cy="144.17093" r="3.00000629370808" stroke="black" stroke-linecap="butt" stroke-linejoin="round" stroke-width="2"/>
        </g>
        <g id="Graphic_256">
          <title>c_18</title>
          <circle cx="734.8497" cy="408.7757" r="3.00000629370821" fill="#1f7bfd"/>
          <circle cx="734.8497" cy="408.7757" r="3.00000629370821" stroke="black" stroke-linecap="butt" stroke-linejoin="round" stroke-width="2"/>
        </g>
        <g id="Graphic_255">
          <title>c_19</title>
          <circle cx="812.3719" cy="319.02297" r="3.00000629370812" fill="#1f7bfd"/>
          <circle cx="812.3719" cy="319.02297" r="3.00000629370812" stroke="black" stroke-linecap="butt" stroke-linejoin="round" stroke-width="2"/>
        </g>
        <g id="Graphic_254">
          <title>c_20</title>
          <circle cx="704.5" cy="267" r="3.00000629370814" fill="#1f7bfd"/>
          <circle cx="704.5" cy="267" r="3.00000629370814" stroke="black" stroke-linecap="butt" stroke-linejoin="round" stroke-width="2"/>
        </g>
        <g id="Graphic_253">
          <title>c_21</title>
          <circle cx="626.5" cy="269" r="3.00000629370814" fill="#1f7bfd"/>
          <circle cx="626.5" cy="269" r="3.00000629370814" stroke="black" stroke-linecap="butt" stroke-linejoin="round" stroke-width="2"/>
        </g>
        <g id="Graphic_252">
          <title>c_22</title>
          <circle cx="636.5" cy="304" r="3.00000629370812" fill="#1f7bfd"/>
          <circle cx="636.5" cy="304" r="3.00000629370812" stroke="black" stroke-linecap="butt" stroke-linejoin="round" stroke-width="2"/>
        </g>
        <g id="Graphic_251">
          <title>c_23</title>
          <circle cx="675.5" cy="310" r="3.00000629370813" fill="#1f7bfd"/>
          <circle cx="675.5" cy="310" r="3.00000629370813" stroke="black" stroke-linecap="butt" stroke-linejoin="round" stroke-width="2"/>
        </g>
        <g id="Graphic_250">
          <title>c_24</title>
          <circle cx="703.5" cy="325" r="3.00000629370811" fill="#1f7bfd"/>
          <circle cx="703.5" cy="325" r="3.00000629370811" stroke="black" stroke-linecap="butt" stroke-linejoin="round" stroke-width="2"/>
        </g>
        <g id="Graphic_249">
          <title>c_25</title>
          <circle cx="672.5" cy="268" r="3.00000629370811" fill="#1f7bfd"/>
          <circle cx="672.5" cy="268" r="3.00000629370811" stroke="black" stroke-linecap="butt" stroke-linejoin="round" stroke-width="2"/>
        </g>
        <g id="Graphic_248">
          <title>c_26</title>
          <circle cx="694.5" cy="186" r="3.00000629370817" fill="#1f7bfd"/>
          <circle cx="694.5" cy="186" r="3.00000629370817" stroke="black" stroke-linecap="butt" stroke-linejoin="round" stroke-width="2"/>
        </g>
        <g id="Graphic_247">
          <title>c_27</title>
          <circle cx="695.5" cy="159" r="3.00000629370815" fill="#1f7bfd"/>
          <circle cx="695.5" cy="159" r="3.00000629370815" stroke="black" stroke-linecap="butt" stroke-linejoin="round" stroke-width="2"/>
        </g>
        <g id="Graphic_246">
          <title>c_28</title>
          <circle cx="716.5" cy="154" r="3.00000629370815" fill="#1f7bfd"/>
          <circle cx="716.5" cy="154" r="3.00000629370815" stroke="black" stroke-linecap="butt" stroke-linejoin="round" stroke-width="2"/>
        </g>
        <g id="Graphic_245">
          <title>c_29</title>
          <circle cx="721.5" cy="179" r="3.00000629370816" fill="#1f7bfd"/>
          <circle cx="721.5" cy="179" r="3.00000629370816" stroke="black" stroke-linecap="butt" stroke-linejoin="round" stroke-width="2"/>
        </g>
        <g id="Graphic_244">
          <title>c_30</title>
          <circle cx="719.5" cy="195" r="3.00000629370815" fill="#1f7bfd"/>
          <circle cx="719.5" cy="195" r="3.00000629370815" stroke="black" stroke-linecap="butt" stroke-linejoin="round" stroke-width="2"/>
        </g>
        <g id="Graphic_243">
          <title>c_31</title>
          <circle cx="831.5" cy="313" r="3.00000629370812" fill="#1f7bfd"/>
          <circle cx="831.5" cy="313" r="3.00000629370812" stroke="black" stroke-linecap="butt" stroke-linejoin="round" stroke-width="2"/>
        </g>
        <g id="Graphic_242">
          <title>c_32</title>
          <circle cx="798.5" cy="295" r="3.00000629370813" fill="#1f7bfd"/>
          <circle cx="798.5" cy="295" r="3.00000629370813" stroke="black" stroke-linecap="butt" stroke-linejoin="round" stroke-width="2"/>
        </g>
        <g id="Graphic_241">
          <title>c_33</title>
          <circle cx="799.5" cy="328" r="3.00000629370816" fill="#1f7bfd"/>
          <circle cx="799.5" cy="328" r="3.00000629370816" stroke="black" stroke-linecap="butt" stroke-linejoin="round" stroke-width="2"/>
        </g>
        <g id="Graphic_240">
          <title>c_34</title>
          <circle cx="821.5" cy="336" r="3.00000629370812" fill="#1f7bfd"/>
          <circle cx="821.5" cy="336" r="3.00000629370812" stroke="black" stroke-linecap="butt" stroke-linejoin="round" stroke-width="2"/>
        </g>
        <g id="Graphic_239">
          <title>c_35</title>
          <circle cx="816.5" cy="289" r="3.00000629370808" fill="#1f7bfd"/>
          <circle cx="816.5" cy="289" r="3.00000629370808" stroke="black" stroke-linecap="butt" stroke-linejoin="round" stroke-width="2"/>
        </g>
        <g id="Graphic_238">
          <title>c_36</title>
          <circle cx="488.5" cy="280" r="3.00000629370807" fill="#1f7bfd"/>
          <circle cx="488.5" cy="280" r="3.00000629370807" stroke="black" stroke-linecap="butt" stroke-linejoin="round" stroke-width="2"/>
        </g>
        <g id="Graphic_237">
          <title>c_37</title>
          <circle cx="490.5" cy="257" r="3.00000629370807" fill="#1f7bfd"/>
          <circle cx="490.5" cy="257" r="3.00000629370807" stroke="black" stroke-linecap="butt" stroke-linejoin="round" stroke-width="2"/>
        </g>
        <g id="Graphic_236">
          <title>c_38</title>
          <circle cx="509.5" cy="255" r="3.00000629370815" fill="#1f7bfd"/>
          <circle cx="509.5" cy="255" r="3.00000629370815" stroke="black" stroke-linecap="butt" stroke-linejoin="round" stroke-width="2"/>
        </g>
        <g id="Graphic_235">
          <title>c_39</title>
          <circle cx="513.5" cy="280" r="3.00000629370807" fill="#1f7bfd"/>
          <circle cx="513.5" cy="280" r="3.00000629370807" stroke="black" stroke-linecap="butt" stroke-linejoin="round" stroke-width="2"/>
        </g>
        <g id="Graphic_234">
          <title>c_40</title>
          <circle cx="507.5" cy="292" r="3.00000629370802" fill="#1f7bfd"/>
          <circle cx="507.5" cy="292" r="3.00000629370802" stroke="black" stroke-linecap="butt" stroke-linejoin="round" stroke-width="2"/>
        </g>
        <g id="Graphic_233">
          <title>c_41</title>
          <circle cx="383.5" cy="193" r="3.00000629370814" fill="#1f7bfd"/>
          <circle cx="383.5" cy="193" r="3.00000629370814" stroke="black" stroke-linecap="butt" stroke-linejoin="round" stroke-width="2"/>
        </g>
        <g id="Graphic_232">
          <title>c_42</title>
          <circle cx="380.5" cy="209" r="3.0000062937081" fill="#1f7bfd"/>
          <circle cx="380.5" cy="209" r="3.0000062937081" stroke="black" stroke-linecap="butt" stroke-linejoin="round" stroke-width="2"/>
        </g>
        <g id="Graphic_231">
          <title>c_43</title>
          <circle cx="393.5" cy="218" r="3.00000629370805" fill="#1f7bfd"/>
          <circle cx="393.5" cy="218" r="3.00000629370805" stroke="black" stroke-linecap="butt" stroke-linejoin="round" stroke-width="2"/>
        </g>
        <g id="Graphic_230">
          <title>c_44</title>
          <circle cx="413.5" cy="209" r="3.00000629370813" fill="#1f7bfd"/>
          <circle cx="413.5" cy="209" r="3.00000629370813" stroke="black" stroke-linecap="butt" stroke-linejoin="round" stroke-width="2"/>
        </g>
        <g id="Graphic_229">
          <title>c_45</title>
          <circle cx="290.5" cy="138" r="3.00000629370808" fill="#1f7bfd"/>
          <circle cx="290.5" cy="138" r="3.00000629370808" stroke="black" stroke-linecap="butt" stroke-linejoin="round" stroke-width="2"/>
        </g>
        <g id="Graphic_228">
          <title>c_46</title>
          <circle cx="281.5" cy="130" r="3.00000629370809" fill="#1f7bfd"/>
          <circle cx="281.5" cy="130" r="3.00000629370809" stroke="black" stroke-linecap="butt" stroke-linejoin="round" stroke-width="2"/>
        </g>
        <g id="Graphic_227">
          <title>c_47</title>
          <circle cx="267.5" cy="134" r="3.00000629370809" fill="#1f7bfd"/>
          <circle cx="267.5" cy="134" r="3.00000629370809" stroke="black" stroke-linecap="butt" stroke-linejoin="round" stroke-width="2"/>
        </g>
        <g id="Graphic_226">
          <title>c_48</title>
          <circle cx="272.5" cy="154" r="3.00000629370809" fill="#1f7bfd"/>
          <circle cx="272.5" cy="154" r="3.00000629370809" stroke="black" stroke-linecap="butt" stroke-linejoin="round" stroke-width="2"/>
        </g>
        <g id="Graphic_225">
          <title>c_49</title>
          <circle cx="312.5" cy="272" r="3.00000629370809" fill="#1f7bfd"/>
          <circle cx="312.5" cy="272" r="3.00000629370809" stroke="black" stroke-linecap="butt" stroke-linejoin="round" stroke-width="2"/>
        </g>
        <g id="Graphic_224">
          <title>c_50</title>
          <circle cx="315.5" cy="290" r="3.00000629370806" fill="#1f7bfd"/>
          <circle cx="315.5" cy="290" r="3.00000629370806" stroke="black" stroke-linecap="butt" stroke-linejoin="round" stroke-width="2"/>
        </g>
        <g id="Graphic_223">
          <title>c_51</title>
          <circle cx="327.5" cy="286" r="3.00000629370804" fill="#1f7bfd"/>
          <circle cx="327.5" cy="286" r="3.00000629370804" stroke="black" stroke-linecap="butt" stroke-linejoin="round" stroke-width="2"/>
        </g>
        <g id="Graphic_222">
          <title>c_52</title>
          <circle cx="330.5" cy="278" r="3.00000629370806" fill="#1f7bfd"/>
          <circle cx="330.5" cy="278" r="3.00000629370806" stroke="black" stroke-linecap="butt" stroke-linejoin="round" stroke-width="2"/>
        </g>
        <g id="Graphic_221">
          <title>c_53</title>
          <circle cx="402.5" cy="397" r="3.00000629370803" fill="#1f7bfd"/>
          <circle cx="402.5" cy="397" r="3.00000629370803" stroke="black" stroke-linecap="butt" stroke-linejoin="round" stroke-width="2"/>
        </g>
        <g id="Graphic_220">
          <title>c_54</title>
          <circle cx="378.5" cy="392" r="3.00000629370812" fill="#1f7bfd"/>
          <circle cx="378.5" cy="392" r="3.00000629370812" stroke="black" stroke-linecap="butt" stroke-linejoin="round" stroke-width="2"/>
        </g>
        <g id="Graphic_219">
          <title>c_55</title>
          <circle cx="495.5" cy="409" r="3.00000629370804" fill="#1f7bfd"/>
          <circle cx="495.5" cy="409" r="3.00000629370804" stroke="black" stroke-linecap="butt" stroke-linejoin="round" stroke-width="2"/>
        </g>
        <g id="Graphic_218">
          <title>c_56</title>
          <circle cx="494.5" cy="391" r="3.00000629370809" fill="#1f7bfd"/>
          <circle cx="494.5" cy="391" r="3.00000629370809" stroke="black" stroke-linecap="butt" stroke-linejoin="round" stroke-width="2"/>
        </g>
        <g id="Graphic_217">
          <title>c_57</title>
          <circle cx="518.5" cy="400" r="3.00000629370812" fill="#1f7bfd"/>
          <circle cx="518.5" cy="400" r="3.00000629370812" stroke="black" stroke-linecap="butt" stroke-linejoin="round" stroke-width="2"/>
        </g>
        <g id="Graphic_216">
          <title>c_58</title>
          <circle cx="722.5" cy="405" r="3.0000062937081" fill="#1f7bfd"/>
          <circle cx="722.5" cy="405" r="3.0000062937081" stroke="black" stroke-linecap="butt" stroke-linejoin="round" stroke-width="2"/>
        </g>
        <g id="Graphic_215">
          <title>c_59</title>
          <circle cx="728.5" cy="394" r="3.00000629370812" fill="#1f7bfd"/>
          <circle cx="728.5" cy="394" r="3.00000629370812" stroke="black" stroke-linecap="butt" stroke-linejoin="round" stroke-width="2"/>
        </g>
        <g id="Graphic_214">
          <title>c_60</title>
          <circle cx="748.5" cy="406" r="3.00000629370811" fill="#1f7bfd"/>
          <circle cx="748.5" cy="406" r="3.00000629370811" stroke="black" stroke-linecap="butt" stroke-linejoin="round" stroke-width="2"/>
        </g>
        <g id="Graphic_213">
          <title>c_61</title>
          <circle cx="580.5" cy="152" r="3.00000629370817" fill="#1f7bfd"/>
          <circle cx="580.5" cy="152" r="3.00000629370817" stroke="black" stroke-linecap="butt" stroke-linejoin="round" stroke-width="2"/>
        </g>
        <g id="Graphic_212">
          <title>c_62</title>
          <circle cx="568.5" cy="160" r="3.00000629370814" fill="#1f7bfd"/>
          <circle cx="568.5" cy="160" r="3.00000629370814" stroke="black" stroke-linecap="butt" stroke-linejoin="round" stroke-width="2"/>
        </g>
        <g id="Graphic_211">
          <title>c_63</title>
          <circle cx="553.5" cy="145" r="3.00000629370817" fill="#1f7bfd"/>
          <circle cx="553.5" cy="145" r="3.00000629370817" stroke="black" stroke-linecap="butt" stroke-linejoin="round" stroke-width="2"/>
        </g>
        <g id="Graphic_210">
          <title>c_64</title>
          <circle cx="569.5" cy="135" r="3.00000629370817" fill="#1f7bfd"/>
          <circle cx="569.5" cy="135" r="3.00000629370817" stroke="black" stroke-linecap="butt" stroke-linejoin="round" stroke-width="2"/>
        </g>
        <g id="Graphic_209">
          <title>c_65</title>
          <circle cx="657.5" cy="91" r="3.00000629370817" fill="#1f7bfd"/>
          <circle cx="657.5" cy="91" r="3.00000629370817" stroke="black" stroke-linecap="butt" stroke-linejoin="round" stroke-width="2"/>
        </g>
        <g id="Graphic_208">
          <title>c_66</title>
          <circle cx="680.5" cy="102" r="3.00000629370814" fill="#1f7bfd"/>
          <circle cx="680.5" cy="102" r="3.00000629370814" stroke="black" stroke-linecap="butt" stroke-linejoin="round" stroke-width="2"/>
        </g>
        <g id="Graphic_207">
          <title>c_67</title>
          <circle cx="474.5" cy="103" r="3.00000629370806" fill="#1f7bfd"/>
          <circle cx="474.5" cy="103" r="3.00000629370806" stroke="black" stroke-linecap="butt" stroke-linejoin="round" stroke-width="2"/>
        </g>
        <g id="Graphic_206">
          <title>c_68</title>
          <circle cx="467.5" cy="117" r="3.00000629370812" fill="#1f7bfd"/>
          <circle cx="467.5" cy="117" r="3.00000629370812" stroke="black" stroke-linecap="butt" stroke-linejoin="round" stroke-width="2"/>
        </g>
        <g id="Graphic_205">
          <title>c_69</title>
          <circle cx="489.5" cy="116" r="3.00000629370806" fill="#1f7bfd"/>
          <circle cx="489.5" cy="116" r="3.00000629370806" stroke="black" stroke-linecap="butt" stroke-linejoin="round" stroke-width="2"/>
        </g>
        <g id="Graphic_204">
          <title>c_70</title>
          <circle cx="192.5" cy="132" r="3.0000062937081" fill="#1f7bfd"/>
          <circle cx="192.5" cy="132" r="3.0000062937081" stroke="black" stroke-linecap="butt" stroke-linejoin="round" stroke-width="2"/>
        </g>
        <g id="Graphic_203">
          <title>c_71</title>
          <circle cx="192.5" cy="111" r="3.00000629370809" fill="#1f7bfd"/>
          <circle cx="192.5" cy="111" r="3.00000629370809" stroke="black" stroke-linecap="butt" stroke-linejoin="round" stroke-width="2"/>
        </g>
        <g id="Graphic_202">
          <title>c_72</title>
          <circle cx="211.5" cy="132" r="3.00000629370811" fill="#1f7bfd"/>
          <circle cx="211.5" cy="132" r="3.00000629370811" stroke="black" stroke-linecap="butt" stroke-linejoin="round" stroke-width="2"/>
        </g>
        <g id="Graphic_201">
          <title>c_73</title>
          <circle cx="210.5" cy="218" r="3.00000629370811" fill="#1f7bfd"/>
          <circle cx="210.5" cy="218" r="3.00000629370811" stroke="black" stroke-linecap="butt" stroke-linejoin="round" stroke-width="2"/>
        </g>
        <g id="Graphic_200">
          <title>c_74</title>
          <circle cx="238.5" cy="239" r="3.00000629370812" fill="#1f7bfd"/>
          <circle cx="238.5" cy="239" r="3.00000629370812" stroke="black" stroke-linecap="butt" stroke-linejoin="round" stroke-width="2"/>
        </g>
        <g id="Graphic_199">
          <title>c_75</title>
          <circle cx="152.5" cy="308" r="3.00000629370807" fill="#1f7bfd"/>
          <circle cx="152.5" cy="308" r="3.00000629370807" stroke="black" stroke-linecap="butt" stroke-linejoin="round" stroke-width="2"/>
        </g>
        <g id="Graphic_198">
          <title>c_76</title>
          <circle cx="160.5" cy="295" r="3.00000629370805" fill="#1f7bfd"/>
          <circle cx="160.5" cy="295" r="3.00000629370805" stroke="black" stroke-linecap="butt" stroke-linejoin="round" stroke-width="2"/>
        </g>
        <g id="Graphic_197">
          <title>c_77</title>
          <circle cx="170.5" cy="308" r="3.00000629370808" fill="#1f7bfd"/>
          <circle cx="170.5" cy="308" r="3.00000629370808" stroke="black" stroke-linecap="butt" stroke-linejoin="round" stroke-width="2"/>
        </g>
        <g id="Graphic_196">
          <title>c_78</title>
          <circle cx="185.5" cy="399" r="3.00000629370805" fill="#1f7bfd"/>
          <circle cx="185.5" cy="399" r="3.00000629370805" stroke="black" stroke-linecap="butt" stroke-linejoin="round" stroke-width="2"/>
        </g>
        <g id="Graphic_195">
          <title>c_79</title>
          <circle cx="197.5" cy="383" r="3.00000629370813" fill="#1f7bfd"/>
          <circle cx="197.5" cy="383" r="3.00000629370813" stroke="black" stroke-linecap="butt" stroke-linejoin="round" stroke-width="2"/>
        </g>
      </g>
    </g>
  </g>
</svg>
